WIPSHDC-V1-Revival-Sans-ExtraLight.ufo
<glyph name="uni4E52" format="2">
  <advance width="1000"/>
  <unicode hex="4E52"/>
  <note>
cid09591
</note>
  <outline>
    <contour>
      <point x="731" y="546" type="line"/>
      <point x="702" y="546" type="line"/>
      <point x="702" y="224" type="line"/>
      <point x="731" y="224" type="line"/>
    </contour>
    <contour>
      <point x="940" y="238" type="line"/>
      <point x="57" y="238" type="line"/>
      <point x="57" y="209" type="line"/>
      <point x="940" y="209" type="line"/>
    </contour>
    <contour>
      <point x="883" y="558" type="line"/>
      <point x="260" y="558" type="line"/>
      <point x="260" y="529" type="line"/>
      <point x="883" y="529" type="line"/>
    </contour>
    <contour>
      <point x="270" y="737" type="line"/>
      <point x="241" y="747" type="line"/>
      <point x="241" y="221" type="line"/>
      <point x="270" y="221" type="line"/>
    </contour>
    <contour>
      <point x="782" y="812" type="curve"/>
      <point x="751" y="832" type="line"/>
      <point x="646" y="792"/>
      <point x="429" y="758"/>
      <point x="252" y="739" type="curve"/>
      <point x="256" y="732"/>
      <point x="261" y="721"/>
      <point x="262" y="714" type="curve"/>
      <point x="442" y="734"/>
      <point x="659" y="766"/>
    </contour>
    <contour>
      <point x="368" y="145" type="curve"/>
      <point x="345" y="160" type="line"/>
      <point x="289" y="78"/>
      <point x="188" y="2"/>
      <point x="59" y="-47" type="curve"/>
      <point x="65" y="-52"/>
      <point x="76" y="-63"/>
      <point x="80" y="-70" type="curve"/>
      <point x="205" y="-20"/>
      <point x="302" y="55"/>
    </contour>
  </outline>
</glyph>
<glyph name="uni4E53" format="2">
  <advance width="1000"/>
  <unicode hex="4E53"/>
  <note>
cid09592
</note>
  <outline>
    <contour>
      <point x="731" y="546" type="line"/>
      <point x="702" y="546" type="line"/>
      <point x="702" y="224" type="line"/>
      <point x="731" y="224" type="line"/>
    </contour>
    <contour>
      <point x="940" y="238" type="line"/>
      <point x="57" y="238" type="line"/>
      <point x="57" y="209" type="line"/>
      <point x="940" y="209" type="line"/>
    </contour>
    <contour>
      <point x="883" y="558" type="line"/>
      <point x="260" y="558" type="line"/>
      <point x="260" y="529" type="line"/>
      <point x="883" y="529" type="line"/>
    </contour>
    <contour>
      <point x="641" y="161" type="curve"/>
      <point x="622" y="145" type="line"/>
      <point x="721" y="82"/>
      <point x="827" y="-4"/>
      <point x="878" y="-72" type="curve"/>
      <point x="897" y="-54" type="line"/>
      <point x="843" y="15"/>
      <point x="739" y="99"/>
    </contour>
    <contour>
      <point x="270" y="737" type="line"/>
      <point x="241" y="747" type="line"/>
      <point x="241" y="221" type="line"/>
      <point x="270" y="221" type="line"/>
    </contour>
    <contour>
      <point x="782" y="812" type="curve"/>
      <point x="751" y="832" type="line"/>
      <point x="644" y="790"/>
      <point x="428" y="759"/>
      <point x="252" y="739" type="curve"/>
      <point x="256" y="732"/>
      <point x="261" y="722"/>
      <point x="262" y="715" type="curve"/>
      <point x="442" y="733"/>
      <point x="657" y="765"/>
    </contour>
  </outline>
</glyph>
<glyph name="uni506F" format="2">
  <advance width="1000"/>
  <unicode hex="506F"/>
  <note>
cid10439
</note>
  <outline>
    <contour>
      <point x="477" y="219" type="line"/>
      <point x="448" y="219" type="line"/>
      <point x="448" y="-35" type="line"/>
      <point x="477" y="-33" type="line"/>
    </contour>
    <contour>
      <point x="342" y="-38" type="curve"/>
      <point x="349" y="-67" type="line"/>
      <point x="448" y="-49"/>
      <point x="591" y="-24"/>
      <point x="726" y="2" type="curve"/>
      <point x="725" y="30" type="line"/>
      <point x="582" y="4"/>
      <point x="435" y="-23"/>
    </contour>
    <contour>
      <point x="631" y="826" type="line"/>
      <point x="602" y="826" type="line"/>
      <point x="602" y="681" type="line"/>
      <point x="631" y="681" type="line"/>
    </contour>
    <contour>
      <point x="938" y="697" type="line"/>
      <point x="298" y="697" type="line"/>
      <point x="298" y="668" type="line"/>
      <point x="938" y="668" type="line"/>
    </contour>
    <contour>
      <point x="404" y="357" type="line"/>
      <point x="404" y="540" type="line"/>
      <point x="823" y="540" type="line"/>
      <point x="823" y="357" type="line"/>
    </contour>
    <contour>
      <point x="852" y="569" type="line"/>
      <point x="375" y="569" type="line"/>
      <point x="375" y="327" type="line"/>
      <point x="852" y="327" type="line"/>
    </contour>
    <contour>
      <point x="617" y="333" type="curve"/>
      <point x="592" y="346" type="line"/>
      <point x="523" y="262"/>
      <point x="384" y="178"/>
      <point x="272" y="142" type="curve"/>
      <point x="279" y="136"/>
      <point x="287" y="125"/>
      <point x="292" y="117" type="curve"/>
      <point x="404" y="159"/>
      <point x="545" y="245"/>
    </contour>
    <contour>
      <point x="633" y="346" type="curve"/>
      <point x="607" y="339" type="line"/>
      <point x="661" y="145"/>
      <point x="775" y="-3"/>
      <point x="940" y="-70" type="curve"/>
      <point x="945" y="-62"/>
      <point x="954" y="-51"/>
      <point x="962" y="-45" type="curve"/>
      <point x="797" y="15"/>
      <point x="684" y="160"/>
    </contour>
    <contour>
      <point x="911" y="273" type="curve"/>
      <point x="883" y="291" type="line"/>
      <point x="836" y="252"/>
      <point x="754" y="193"/>
      <point x="693" y="160" type="curve"/>
      <point x="714" y="144" type="line"/>
      <point x="776" y="176"/>
      <point x="855" y="227"/>
    </contour>
    <contour>
      <point x="309" y="815" type="curve"/>
      <point x="281" y="822" type="line"/>
      <point x="226" y="665"/>
      <point x="137" y="508"/>
      <point x="40" y="404" type="curve"/>
      <point x="47" y="398"/>
      <point x="58" y="386"/>
      <point x="63" y="380" type="curve"/>
      <point x="161" y="491"/>
      <point x="250" y="650"/>
    </contour>
    <contour>
      <point x="207" y="610" type="line"/>
      <point x="180" y="582" type="line"/>
      <point x="180" y="-70" type="line"/>
      <point x="209" y="-70" type="line"/>
      <point x="209" y="609" type="line"/>
    </contour>
  </outline>
</glyph>
<glyph name="uni523D" format="2">
  <advance width="1000"/>
  <unicode hex="523D"/>
  <note>
cid11218
</note>
  <outline>
    <contour>
      <point x="341" y="807" type="line"/>
      <point x="319" y="807" type="line"/>
      <point x="271" y="710"/>
      <point x="177" y="579"/>
      <point x="49" y="485" type="curve"/>
      <point x="56" y="481"/>
      <point x="66" y="473"/>
      <point x="71" y="467" type="curve"/>
      <point x="201" y="566"/>
      <point x="293" y="694"/>
      <point x="345" y="789" type="curve"/>
      <point x="345" y="797" type="line"/>
      <point x="341" y="797" type="line"/>
    </contour>
    <contour>
      <point x="355" y="807" type="curve"/>
      <point x="322" y="807" type="line"/>
      <point x="322" y="786" type="line"/>
      <point x="337" y="786" type="line"/>
      <point x="418" y="713"/>
      <point x="520" y="600"/>
      <point x="569" y="529" type="curve"/>
      <point x="593" y="550" type="line"/>
      <point x="544" y="619"/>
      <point x="442" y="729"/>
    </contour>
    <contour>
      <point x="305" y="296" type="curve"/>
      <point x="273" y="304" type="line"/>
      <point x="245" y="204"/>
      <point x="199" y="78"/>
      <point x="161" y="0" type="curve"/>
      <point x="187" y="-8" type="line"/>
      <point x="224" y="69"/>
      <point x="273" y="194"/>
    </contour>
    <contour>
      <point x="446" y="207" type="curve"/>
      <point x="421" y="199" type="line"/>
      <point x="470" y="123"/>
      <point x="520" y="22"/>
      <point x="541" y="-46" type="curve"/>
      <point x="569" y="-35" type="line"/>
      <point x="548" y="31"/>
      <point x="497" y="132"/>
    </contour>
    <contour>
      <point x="489" y="502" type="line"/>
      <point x="184" y="502" type="line"/>
      <point x="184" y="472" type="line"/>
      <point x="489" y="472" type="line"/>
    </contour>
    <contour>
      <point x="567" y="315" type="line"/>
      <point x="95" y="315" type="line"/>
      <point x="95" y="286" type="line"/>
      <point x="567" y="286" type="line"/>
    </contour>
    <contour>
      <point x="86" y="2" type="curve"/>
      <point x="98" y="-28" type="line"/>
      <point x="207" y="-13"/>
      <point x="365" y="11"/>
      <point x="518" y="35" type="curve"/>
      <point x="518" y="63" type="line"/>
      <point x="357" y="38"/>
      <point x="191" y="15"/>
    </contour>
    <contour>
      <point x="690" y="713" type="line"/>
      <point x="661" y="713" type="line"/>
      <point x="661" y="170" type="line"/>
      <point x="690" y="170" type="line"/>
    </contour>
    <contour>
      <point x="902" y="809" type="line"/>
      <point x="873" y="809" type="line"/>
      <point x="873" y="-18" type="line" smooth="yes"/>
      <point x="873" y="-37"/>
      <point x="866" y="-42"/>
      <point x="848" y="-43" type="curve" smooth="yes"/>
      <point x="833" y="-44"/>
      <point x="776" y="-44"/>
      <point x="707" y="-43" type="curve"/>
      <point x="712" y="-51"/>
      <point x="717" y="-63"/>
      <point x="720" y="-71" type="curve"/>
      <point x="804" y="-71"/>
      <point x="846" y="-71"/>
      <point x="869" y="-65" type="curve" smooth="yes"/>
      <point x="890" y="-60"/>
      <point x="902" y="-49"/>
      <point x="902" y="-18" type="curve" smooth="yes"/>
    </contour>
  </outline>
</glyph>
<glyph name="uni524E" format="2">
  <advance width="1000"/>
  <unicode hex="524E"/>
  <outline>
    <contour>
      <point x="406" y="483" type="curve"/>
      <point x="386" y="468" type="line"/>
      <point x="425" y="443"/>
      <point x="469" y="405"/>
      <point x="491" y="379" type="curve"/>
      <point x="511" y="396" type="line"/>
      <point x="490" y="422"/>
      <point x="445" y="459"/>
    </contour>
    <contour>
      <point x="545" y="303" type="line"/>
      <point x="545" y="333" type="line"/>
      <point x="59" y="333" type="line"/>
      <point x="59" y="303" type="line"/>
    </contour>
    <contour>
      <point x="328" y="-70" type="line"/>
      <point x="328" y="488" type="line"/>
      <point x="298" y="488" type="line"/>
      <point x="298" y="-70" type="line"/>
    </contour>
    <contour>
      <point x="474" y="818" type="curve"/>
      <point x="445" y="831" type="line"/>
      <point x="371" y="689"/>
      <point x="226" y="550"/>
      <point x="55" y="459" type="curve"/>
      <point x="62" y="454"/>
      <point x="70" y="446"/>
      <point x="75" y="440" type="curve"/>
      <point x="247" y="535"/>
      <point x="392" y="670"/>
    </contour>
    <contour>
      <point x="313" y="308" type="curve"/>
      <point x="289" y="319" type="line"/>
      <point x="233" y="208"/>
      <point x="137" y="98"/>
      <point x="40" y="33" type="curve"/>
      <point x="46" y="29"/>
      <point x="55" y="17"/>
      <point x="59" y="10" type="curve"/>
      <point x="156" y="79"/>
      <point x="254" y="194"/>
    </contour>
    <contour>
      <point x="322" y="258" type="curve"/>
      <point x="304" y="238" type="line"/>
      <point x="353" y="209"/>
      <point x="491" y="109"/>
      <point x="534" y="75" type="curve"/>
      <point x="551" y="98" type="line"/>
      <point x="513" y="126"/>
      <point x="363" y="232"/>
    </contour>
    <contour>
      <point x="653" y="185" type="line"/>
      <point x="653" y="728" type="line"/>
      <point x="623" y="728" type="line"/>
      <point x="623" y="185" type="line"/>
    </contour>
    <contour>
      <point x="903" y="-9" type="curve" smooth="yes"/>
      <point x="903" y="813" type="line"/>
      <point x="873" y="813" type="line"/>
      <point x="873" y="-10" type="line" smooth="yes"/>
      <point x="873" y="-28"/>
      <point x="868" y="-33"/>
      <point x="851" y="-34" type="curve" smooth="yes"/>
      <point x="831" y="-35"/>
      <point x="766" y="-36"/>
      <point x="693" y="-34" type="curve"/>
      <point x="699" y="-45"/>
      <point x="704" y="-60"/>
      <point x="707" y="-69" type="curve"/>
      <point x="784" y="-69"/>
      <point x="840" y="-69"/>
      <point x="866" y="-64" type="curve" smooth="yes"/>
      <point x="892" y="-57"/>
      <point x="903" y="-45"/>
    </contour>
    <contour>
      <point x="117" y="768" type="curve"/>
      <point x="92" y="748" type="line"/>
      <point x="245" y="689"/>
      <point x="419" y="582"/>
      <point x="505" y="503" type="curve"/>
      <point x="528" y="523" type="line"/>
      <point x="441" y="602"/>
      <point x="266" y="708"/>
    </contour>
  </outline>
</glyph>
<glyph name="uni5406" format="2">
  <advance width="1000"/>
  <unicode hex="5406"/>
  <note>
cid11946
</note>
  <outline>
    <contour>
      <point x="347" y="697" type="line"/>
      <point x="105" y="697" type="line"/>
      <point x="105" y="668" type="line"/>
      <point x="317" y="668" type="line"/>
      <point x="317" y="224" type="line"/>
      <point x="105" y="224" type="line"/>
      <point x="105" y="194" type="line"/>
      <point x="347" y="194" type="line"/>
    </contour>
    <contour>
      <point x="115" y="697" type="line"/>
      <point x="85" y="697" type="line"/>
      <point x="85" y="89" type="line"/>
      <point x="115" y="89" type="line"/>
    </contour>
    <contour>
      <point x="658" y="815" type="curve"/>
      <point x="626" y="825" type="line"/>
      <point x="587" y="729"/>
      <point x="513" y="584"/>
      <point x="456" y="501" type="curve"/>
      <point x="479" y="484" type="line"/>
      <point x="536" y="569"/>
      <point x="607" y="708"/>
    </contour>
    <contour>
      <point x="384" y="584" type="curve"/>
      <point x="367" y="563" type="line"/>
      <point x="467" y="484"/>
      <point x="577" y="365"/>
      <point x="634" y="280" type="curve"/>
      <point x="652" y="304" type="line"/>
      <point x="596" y="388"/>
      <point x="486" y="503"/>
    </contour>
    <contour>
      <point x="780" y="256" type="curve"/>
      <point x="755" y="244" type="line"/>
      <point x="824" y="147"/>
      <point x="895" y="21"/>
      <point x="924" y="-68" type="curve"/>
      <point x="952" y="-52" type="line"/>
      <point x="922" y="34"/>
      <point x="853" y="160"/>
    </contour>
    <contour>
      <point x="329" y="12" type="curve"/>
      <point x="334" y="-19" type="line"/>
      <point x="478" y="-6"/>
      <point x="689" y="13"/>
      <point x="896" y="36" type="curve"/>
      <point x="897" y="64" type="line"/>
      <point x="683" y="42"/>
      <point x="469" y="24"/>
    </contour>
    <contour>
      <point x="857" y="630" type="curve"/>
      <point x="825" y="642" type="line"/>
      <point x="727" y="448"/>
      <point x="556" y="178"/>
      <point x="435" y="16" type="curve"/>
      <point x="458" y="2" type="line"/>
      <point x="583" y="163"/>
      <point x="746" y="429"/>
    </contour>
  </outline>
</glyph>
<glyph name="uni5414" format="2">
  <advance width="1000"/>
  <unicode hex="5414"/>
  <note>
cid11965
</note>
  <outline>
    <contour>
      <point x="682" y="831" type="line"/>
      <point x="653" y="831" type="line"/>
      <point x="653" y="143" type="line"/>
      <point x="682" y="143" type="line"/>
    </contour>
    <contour>
      <point x="879" y="642" type="line"/>
      <point x="320" y="408" type="line"/>
      <point x="332" y="381" type="line"/>
      <point x="892" y="616" type="line"/>
    </contour>
    <contour>
      <point x="467" y="741" type="line"/>
      <point x="437" y="741" type="line"/>
      <point x="437" y="52" type="line" smooth="yes"/>
      <point x="437" y="-27"/>
      <point x="466" y="-45"/>
      <point x="559" y="-45" type="curve" smooth="yes"/>
      <point x="838" y="-45" type="line" smooth="yes"/>
      <point x="930" y="-45"/>
      <point x="943" y="-4"/>
      <point x="951" y="130" type="curve"/>
      <point x="942" y="131"/>
      <point x="930" y="136"/>
      <point x="921" y="143" type="curve"/>
      <point x="915" y="16"/>
      <point x="905" y="-16"/>
      <point x="842" y="-16" type="curve" smooth="yes"/>
      <point x="554" y="-16" type="line" smooth="yes"/>
      <point x="482" y="-16"/>
      <point x="467" y="-1"/>
      <point x="467" y="50" type="curve" smooth="yes"/>
    </contour>
    <contour>
      <point x="866" y="635" type="line"/>
      <point x="876" y="635" type="line"/>
      <point x="876" y="457"/>
      <point x="874" y="283"/>
      <point x="866" y="250" type="curve" smooth="yes"/>
      <point x="859" y="222"/>
      <point x="846" y="217"/>
      <point x="827" y="217" type="curve" smooth="yes"/>
      <point x="815" y="217"/>
      <point x="772" y="217"/>
      <point x="742" y="219" type="curve"/>
      <point x="747" y="210"/>
      <point x="750" y="198"/>
      <point x="752" y="188" type="curve"/>
      <point x="775" y="188"/>
      <point x="812" y="188"/>
      <point x="836" y="189" type="curve" smooth="yes"/>
      <point x="864" y="190"/>
      <point x="885" y="203"/>
      <point x="893" y="238" type="curve" smooth="yes"/>
      <point x="902" y="275"/>
      <point x="906" y="454"/>
      <point x="906" y="639" type="curve"/>
      <point x="908" y="647" type="line"/>
      <point x="886" y="657" type="line"/>
      <point x="880" y="650" type="line"/>
    </contour>
    <contour>
      <point x="314" y="672" type="line"/>
      <point x="95" y="672" type="line"/>
      <point x="95" y="643" type="line"/>
      <point x="284" y="643" type="line"/>
      <point x="284" y="199" type="line"/>
      <point x="95" y="199" type="line"/>
      <point x="95" y="169" type="line"/>
      <point x="314" y="169" type="line"/>
    </contour>
    <contour>
      <point x="114" y="672" type="line"/>
      <point x="84" y="672" type="line"/>
      <point x="84" y="81" type="line"/>
      <point x="114" y="81" type="line"/>
    </contour>
  </outline>
</glyph>
<glyph name="uni5423" format="2">
  <advance width="1000" height="1000"/>
  <unicode hex="5423"/>
  <note>
cid11986
</note>
  <outline>
    <contour>
      <point x="330" y="694" type="line"/>
      <point x="100" y="694" type="line"/>
      <point x="100" y="665" type="line"/>
      <point x="300" y="665" type="line"/>
      <point x="300" y="220" type="line"/>
      <point x="100" y="220" type="line"/>
      <point x="100" y="190" type="line"/>
      <point x="330" y="190" type="line"/>
    </contour>
    <contour>
      <point x="114" y="694" type="line"/>
      <point x="84" y="694" type="line"/>
      <point x="84" y="103" type="line"/>
      <point x="114" y="103" type="line"/>
    </contour>
    <contour>
      <point x="591" y="599" type="line"/>
      <point x="561" y="599" type="line"/>
      <point x="561" y="10" type="line" smooth="yes"/>
      <point x="561" y="-46"/>
      <point x="578" y="-58"/>
      <point x="636" y="-58" type="curve" smooth="yes"/>
      <point x="650" y="-58"/>
      <point x="770" y="-58"/>
      <point x="784" y="-58" type="curve" smooth="yes"/>
      <point x="843" y="-58"/>
      <point x="852" y="-21"/>
      <point x="856" y="108" type="curve"/>
      <point x="847" y="110"/>
      <point x="835" y="115"/>
      <point x="826" y="122" type="curve"/>
      <point x="823" y="-3"/>
      <point x="818" y="-28"/>
      <point x="784" y="-28" type="curve" smooth="yes"/>
      <point x="760" y="-28"/>
      <point x="653" y="-28"/>
      <point x="635" y="-28" type="curve" smooth="yes"/>
      <point x="598" y="-28"/>
      <point x="591" y="-21"/>
      <point x="591" y="9" type="curve" smooth="yes"/>
    </contour>
    <contour>
      <point x="561" y="812" type="curve"/>
      <point x="542" y="793" type="line"/>
      <point x="626" y="744"/>
      <point x="722" y="668"/>
      <point x="769" y="614" type="curve"/>
      <point x="789" y="637" type="line"/>
      <point x="742" y="690"/>
      <point x="646" y="763"/>
    </contour>
    <contour>
      <point x="478" y="496" type="curve"/>
      <point x="451" y="501" type="line"/>
      <point x="441" y="378"/>
      <point x="419" y="234"/>
      <point x="358" y="152" type="curve"/>
      <point x="385" y="139" type="line"/>
      <point x="446" y="223"/>
      <point x="467" y="371"/>
    </contour>
    <contour>
      <point x="841" y="511" type="curve"/>
      <point x="815" y="504" type="line"/>
      <point x="866" y="395"/>
      <point x="911" y="252"/>
      <point x="926" y="158" type="curve"/>
      <point x="954" y="165" type="line"/>
      <point x="939" y="259"/>
      <point x="894" y="401"/>
    </contour>
  </outline>
</glyph>
<glyph name="uni5493" format="2">
  <advance width="1000"/>
  <unicode hex="5493"/>
  <note>
cid12154
</note>
  <outline>
    <contour>
      <point x="795" y="560" type="curve"/>
      <point x="765" y="560" type="line"/>
      <point x="770" y="168"/>
      <point x="778" y="-72"/>
      <point x="865" y="-72" type="curve" smooth="yes"/>
      <point x="905" y="-72"/>
      <point x="912" y="-34"/>
      <point x="916" y="98" type="curve"/>
      <point x="909" y="100"/>
      <point x="897" y="106"/>
      <point x="891" y="111" type="curve"/>
      <point x="889" y="20"/>
      <point x="884" y="-44"/>
      <point x="866" y="-44" type="curve" smooth="yes"/>
      <point x="807" y="-44"/>
      <point x="798" y="225"/>
    </contour>
    <contour>
      <point x="940" y="772" type="line"/>
      <point x="344" y="772" type="line"/>
      <point x="344" y="743" type="line"/>
      <point x="940" y="743" type="line"/>
    </contour>
    <contour>
      <point x="583" y="412" type="curve"/>
      <point x="558" y="403" type="line"/>
      <point x="597" y="342"/>
      <point x="636" y="251"/>
      <point x="653" y="187" type="curve"/>
      <point x="680" y="197" type="line"/>
      <point x="663" y="259"/>
      <point x="624" y="349"/>
    </contour>
    <contour>
      <point x="782" y="560" type="line"/>
      <point x="505" y="560" type="line"/>
      <point x="502" y="530" type="line"/>
      <point x="782" y="530" type="line"/>
    </contour>
    <contour>
      <point x="330" y="674" type="line"/>
      <point x="101" y="674" type="line"/>
      <point x="101" y="645" type="line"/>
      <point x="300" y="645" type="line"/>
      <point x="300" y="200" type="line"/>
      <point x="101" y="200" type="line"/>
      <point x="101" y="170" type="line"/>
      <point x="330" y="170" type="line"/>
    </contour>
    <contour>
      <point x="115" y="674" type="line"/>
      <point x="85" y="674" type="line"/>
      <point x="85" y="65" type="line"/>
      <point x="115" y="65" type="line"/>
    </contour>
    <contour>
      <point x="532" y="752" type="curve"/>
      <point x="503" y="755" type="line"/>
      <point x="491" y="523"/>
      <point x="469" y="171"/>
      <point x="445" y="-22" type="curve"/>
      <point x="475" y="-22" type="line"/>
      <point x="498" y="168"/>
      <point x="519" y="516"/>
    </contour>
    <contour>
      <point x="356" y="-17" type="curve"/>
      <point x="367" y="-45" type="line"/>
      <point x="476" y="-26"/>
      <point x="625" y="3"/>
      <point x="767" y="29" type="curve"/>
      <point x="766" y="56" type="line"/>
      <point x="615" y="29"/>
      <point x="459" y="-1"/>
    </contour>
  </outline>
</glyph>
<glyph name="uni5494" format="2">
  <advance width="1000" height="1000"/>
  <unicode hex="5494"/>
  <note>
cid12156
</note>
  <outline>
    <contour>
      <point x="949" y="424" type="line"/>
      <point x="371" y="424" type="line"/>
      <point x="371" y="395" type="line"/>
      <point x="949" y="395" type="line"/>
    </contour>
    <contour>
      <point x="645" y="819" type="line"/>
      <point x="616" y="819" type="line"/>
      <point x="616" y="-72" type="line"/>
      <point x="645" y="-72" type="line"/>
    </contour>
    <contour>
      <point x="895" y="643" type="line"/>
      <point x="630" y="643" type="line"/>
      <point x="630" y="614" type="line"/>
      <point x="895" y="614" type="line"/>
    </contour>
    <contour>
      <point x="660" y="293" type="curve"/>
      <point x="644" y="272" type="line"/>
      <point x="733" y="232"/>
      <point x="834" y="166"/>
      <point x="885" y="116" type="curve"/>
      <point x="901" y="141" type="line"/>
      <point x="851" y="189"/>
      <point x="749" y="252"/>
    </contour>
    <contour>
      <point x="339" y="736" type="line"/>
      <point x="100" y="736" type="line"/>
      <point x="100" y="707" type="line"/>
      <point x="310" y="707" type="line"/>
      <point x="310" y="253" type="line"/>
      <point x="100" y="253" type="line"/>
      <point x="100" y="224" type="line"/>
      <point x="339" y="224" type="line"/>
    </contour>
    <contour>
      <point x="112" y="736" type="line"/>
      <point x="83" y="736" type="line"/>
      <point x="83" y="128" type="line"/>
      <point x="112" y="128" type="line"/>
    </contour>
  </outline>
</glyph>
<glyph name="uni54A3" format="2">
  <advance width="1000" height="1000"/>
  <unicode hex="54A3"/>
  <note>
cid12175
</note>
  <outline>
    <contour>
      <point x="331" y="218" type="line"/>
      <point x="331" y="721" type="line"/>
      <point x="98" y="721" type="line"/>
      <point x="98" y="692" type="line"/>
      <point x="302" y="692" type="line"/>
      <point x="302" y="247" type="line"/>
      <point x="98" y="247" type="line"/>
      <point x="98" y="218" type="line"/>
    </contour>
    <contour>
      <point x="113" y="126" type="line"/>
      <point x="113" y="721" type="line"/>
      <point x="84" y="721" type="line"/>
      <point x="84" y="126" type="line"/>
    </contour>
    <contour>
      <point x="950" y="411" type="line"/>
      <point x="950" y="440" type="line"/>
      <point x="363" y="440" type="line"/>
      <point x="363" y="411" type="line"/>
    </contour>
    <contour>
      <point x="655" y="428" type="line"/>
      <point x="655" y="830" type="line"/>
      <point x="625" y="830" type="line"/>
      <point x="625" y="428" type="line"/>
    </contour>
    <contour>
      <point x="555" y="411" type="curve"/>
      <point x="525" y="411" type="line"/>
      <point x="512" y="200"/>
      <point x="476" y="31"/>
      <point x="295" y="-52" type="curve"/>
      <point x="302" y="-57"/>
      <point x="313" y="-66"/>
      <point x="317" y="-73" type="curve"/>
      <point x="501" y="15"/>
      <point x="540" y="187"/>
    </contour>
    <contour>
      <point x="729" y="4" type="curve" smooth="yes"/>
      <point x="729" y="412" type="line"/>
      <point x="700" y="412" type="line"/>
      <point x="700" y="4" type="line" smooth="yes"/>
      <point x="700" y="-46"/>
      <point x="715" y="-56"/>
      <point x="768" y="-56" type="curve" smooth="yes"/>
      <point x="779" y="-56"/>
      <point x="872" y="-56"/>
      <point x="885" y="-56" type="curve" smooth="yes"/>
      <point x="939" y="-56"/>
      <point x="948" y="-21"/>
      <point x="952" y="116" type="curve"/>
      <point x="942" y="119"/>
      <point x="931" y="124"/>
      <point x="922" y="131" type="curve"/>
      <point x="919" y="-5"/>
      <point x="915" y="-26"/>
      <point x="883" y="-26" type="curve" smooth="yes"/>
      <point x="863" y="-26"/>
      <point x="783" y="-26"/>
      <point x="768" y="-26" type="curve" smooth="yes"/>
      <point x="735" y="-26"/>
      <point x="729" y="-20"/>
    </contour>
    <contour>
      <point x="431" y="772" type="curve"/>
      <point x="405" y="765" type="line"/>
      <point x="447" y="682"/>
      <point x="487" y="573"/>
      <point x="500" y="502" type="curve"/>
      <point x="528" y="511" type="line"/>
      <point x="516" y="581"/>
      <point x="476" y="690"/>
    </contour>
    <contour>
      <point x="885" y="768" type="curve"/>
      <point x="856" y="779" type="line"/>
      <point x="828" y="699"/>
      <point x="777" y="580"/>
      <point x="738" y="511" type="curve"/>
      <point x="762" y="500" type="line"/>
      <point x="802" y="570"/>
      <point x="851" y="682"/>
    </contour>
  </outline>
</glyph>
<glyph name="uni54CB" format="2">
  <advance width="1000"/>
  <unicode hex="54CB"/>
  <note>
cid12237
</note>
  <outline>
    <contour>
      <point x="888" y="613" type="line"/>
      <point x="504" y="426" type="line"/>
      <point x="517" y="400" type="line"/>
      <point x="901" y="587" type="line"/>
    </contour>
    <contour>
      <point x="872" y="604" type="line"/>
      <point x="882" y="604" type="line"/>
      <point x="882" y="448"/>
      <point x="880" y="285"/>
      <point x="876" y="260" type="curve" smooth="yes"/>
      <point x="872" y="239"/>
      <point x="864" y="235"/>
      <point x="851" y="235" type="curve" smooth="yes"/>
      <point x="842" y="235"/>
      <point x="816" y="235"/>
      <point x="797" y="236" type="curve"/>
      <point x="802" y="228"/>
      <point x="805" y="217"/>
      <point x="807" y="207" type="curve"/>
      <point x="822" y="207"/>
      <point x="845" y="207"/>
      <point x="862" y="208" type="curve" smooth="yes"/>
      <point x="881" y="209"/>
      <point x="899" y="220"/>
      <point x="904" y="248" type="curve" smooth="yes"/>
      <point x="910" y="277"/>
      <point x="911" y="446"/>
      <point x="911" y="608" type="curve"/>
      <point x="913" y="614" type="line"/>
      <point x="892" y="625" type="line"/>
      <point x="886" y="618" type="line"/>
    </contour>
    <contour>
      <point x="529" y="531" type="line"/>
      <point x="290" y="531" type="line"/>
      <point x="290" y="502" type="line"/>
      <point x="529" y="502" type="line"/>
    </contour>
    <contour>
      <point x="427" y="770" type="line"/>
      <point x="398" y="770" type="line"/>
      <point x="398" y="122" type="line"/>
      <point x="427" y="122" type="line"/>
    </contour>
    <contour>
      <point x="269" y="84" type="curve"/>
      <point x="284" y="57" type="line"/>
      <point x="359" y="85"/>
      <point x="454" y="124"/>
      <point x="545" y="161" type="curve"/>
      <point x="539" y="188" type="line"/>
      <point x="438" y="149"/>
      <point x="337" y="109"/>
    </contour>
    <contour>
      <point x="760" y="831" type="line"/>
      <point x="730" y="831" type="line"/>
      <point x="730" y="143" type="line"/>
      <point x="760" y="143" type="line"/>
    </contour>
    <contour>
      <point x="602" y="741" type="line"/>
      <point x="573" y="741" type="line"/>
      <point x="573" y="36" type="line" smooth="yes"/>
      <point x="573" y="-30"/>
      <point x="594" y="-45"/>
      <point x="667" y="-45" type="curve" smooth="yes"/>
      <point x="866" y="-45" type="line" smooth="yes"/>
      <point x="937" y="-45"/>
      <point x="947" y="-8"/>
      <point x="952" y="114" type="curve"/>
      <point x="943" y="117"/>
      <point x="931" y="122"/>
      <point x="922" y="129" type="curve"/>
      <point x="918" y="12"/>
      <point x="912" y="-16"/>
      <point x="868" y="-16" type="curve" smooth="yes"/>
      <point x="665" y="-16" type="line" smooth="yes"/>
      <point x="613" y="-16"/>
      <point x="602" y="-6"/>
      <point x="602" y="35" type="curve" smooth="yes"/>
    </contour>
    <contour>
      <point x="266" y="720" type="line"/>
      <point x="98" y="720" type="line"/>
      <point x="98" y="691" type="line"/>
      <point x="237" y="691" type="line"/>
      <point x="237" y="228" type="line"/>
      <point x="98" y="228" type="line"/>
      <point x="98" y="198" type="line"/>
      <point x="266" y="198" type="line"/>
    </contour>
    <contour>
      <point x="113" y="720" type="line"/>
      <point x="84" y="720" type="line"/>
      <point x="84" y="112" type="line"/>
      <point x="113" y="112" type="line"/>
    </contour>
  </outline>
</glyph>
<glyph name="uni553F" format="2">
  <advance width="1000" height="1000"/>
  <unicode hex="553F"/>
  <note>
cid12410
</note>
  <outline>
    <contour>
      <point x="314" y="217" type="line"/>
      <point x="314" y="720" type="line"/>
      <point x="98" y="720" type="line"/>
      <point x="98" y="691" type="line"/>
      <point x="284" y="691" type="line"/>
      <point x="284" y="246" type="line"/>
      <point x="98" y="246" type="line"/>
      <point x="98" y="217" type="line"/>
    </contour>
    <contour>
      <point x="113" y="130" type="line"/>
      <point x="113" y="720" type="line"/>
      <point x="84" y="720" type="line"/>
      <point x="84" y="130" type="line"/>
    </contour>
    <contour>
      <point x="554" y="825" type="curve"/>
      <point x="525" y="833" type="line"/>
      <point x="483" y="733"/>
      <point x="413" y="638"/>
      <point x="337" y="574" type="curve"/>
      <point x="345" y="570"/>
      <point x="357" y="559"/>
      <point x="361" y="554" type="curve"/>
      <point x="435" y="621"/>
      <point x="508" y="720"/>
    </contour>
    <contour>
      <point x="637" y="693" type="curve"/>
      <point x="609" y="700" type="line"/>
      <point x="558" y="565"/>
      <point x="466" y="450"/>
      <point x="357" y="376" type="curve"/>
      <point x="364" y="371"/>
      <point x="376" y="360"/>
      <point x="380" y="355" type="curve"/>
      <point x="487" y="433"/>
      <point x="583" y="551"/>
    </contour>
    <contour>
      <point x="798" y="694" type="curve"/>
      <point x="769" y="700" type="line"/>
      <point x="725" y="541"/>
      <point x="642" y="410"/>
      <point x="528" y="327" type="curve"/>
      <point x="536" y="322"/>
      <point x="548" y="311"/>
      <point x="552" y="306" type="curve"/>
      <point x="665" y="394"/>
      <point x="751" y="527"/>
    </contour>
    <contour>
      <point x="908" y="674" type="line"/>
      <point x="908" y="704" type="line"/>
      <point x="471" y="704" type="line"/>
      <point x="454" y="674" type="line"/>
    </contour>
    <contour>
      <point x="927" y="704" type="curve"/>
      <point x="897" y="704" type="line"/>
      <point x="897" y="697" type="line" smooth="yes"/>
      <point x="879" y="456"/>
      <point x="862" y="366"/>
      <point x="836" y="341" type="curve" smooth="yes"/>
      <point x="828" y="332"/>
      <point x="819" y="331"/>
      <point x="802" y="331" type="curve" smooth="yes"/>
      <point x="785" y="331"/>
      <point x="738" y="332"/>
      <point x="688" y="336" type="curve"/>
      <point x="693" y="328"/>
      <point x="696" y="317"/>
      <point x="697" y="308" type="curve"/>
      <point x="741" y="304"/>
      <point x="785" y="303"/>
      <point x="808" y="304" type="curve" smooth="yes"/>
      <point x="832" y="304"/>
      <point x="847" y="309"/>
      <point x="861" y="323" type="curve" smooth="yes"/>
      <point x="890" y="353"/>
      <point x="907" y="438"/>
      <point x="925" y="684" type="curve" smooth="yes"/>
      <point x="926" y="690"/>
      <point x="927" y="704"/>
    </contour>
    <contour>
      <point x="529" y="-16" type="curve" smooth="yes"/>
      <point x="529" y="204" type="line"/>
      <point x="500" y="204" type="line"/>
      <point x="500" y="-16" type="line" smooth="yes"/>
      <point x="500" y="-64"/>
      <point x="519" y="-72"/>
      <point x="584" y="-72" type="curve" smooth="yes"/>
      <point x="599" y="-72"/>
      <point x="743" y="-72"/>
      <point x="758" y="-72" type="curve" smooth="yes"/>
      <point x="816" y="-72"/>
      <point x="826" y="-49"/>
      <point x="830" y="51" type="curve"/>
      <point x="821" y="53"/>
      <point x="810" y="58"/>
      <point x="802" y="64" type="curve"/>
      <point x="799" y="-30"/>
      <point x="793" y="-43"/>
      <point x="756" y="-43" type="curve" smooth="yes"/>
      <point x="726" y="-43"/>
      <point x="604" y="-43"/>
      <point x="583" y="-43" type="curve" smooth="yes"/>
      <point x="537" y="-43"/>
      <point x="529" y="-38"/>
    </contour>
    <contour>
      <point x="432" y="184" type="curve"/>
      <point x="405" y="190" type="line"/>
      <point x="393" y="106"/>
      <point x="366" y="25"/>
      <point x="303" y="-17" type="curve"/>
      <point x="327" y="-36" type="line"/>
      <point x="394" y="10"/>
      <point x="420" y="97"/>
    </contour>
    <contour>
      <point x="560" y="278" type="curve"/>
      <point x="539" y="258" type="line"/>
      <point x="595" y="224"/>
      <point x="659" y="171"/>
      <point x="690" y="133" type="curve"/>
      <point x="711" y="156" type="line"/>
      <point x="680" y="192"/>
      <point x="616" y="243"/>
    </contour>
    <contour>
      <point x="811" y="199" type="curve"/>
      <point x="786" y="184" type="line"/>
      <point x="847" y="123"/>
      <point x="910" y="35"/>
      <point x="934" y="-22" type="curve"/>
      <point x="960" y="-5" type="line"/>
      <point x="935" y="52"/>
      <point x="872" y="138"/>
    </contour>
  </outline>
</glyph>
<glyph name="uni5555" format="2">
  <advance width="1000"/>
  <unicode hex="5555"/>
  <note>
cid12446
</note>
  <outline>
    <contour>
      <point x="765" y="129" type="line"/>
      <point x="423" y="129" type="line"/>
      <point x="423" y="99" type="line"/>
      <point x="765" y="99" type="line"/>
    </contour>
    <contour>
      <point x="778" y="278" type="line"/>
      <point x="748" y="278" type="line"/>
      <point x="748" y="49" type="line"/>
      <point x="778" y="49" type="line"/>
    </contour>
    <contour>
      <point x="438" y="278" type="line"/>
      <point x="408" y="278" type="line"/>
      <point x="408" y="26" type="line"/>
      <point x="438" y="26" type="line"/>
    </contour>
    <contour>
      <point x="906" y="686" type="line"/>
      <point x="433" y="686" type="line"/>
      <point x="433" y="657" type="line"/>
      <point x="906" y="657" type="line"/>
    </contour>
    <contour>
      <point x="516" y="824" type="curve"/>
      <point x="487" y="831" type="line"/>
      <point x="447" y="714"/>
      <point x="377" y="595"/>
      <point x="306" y="523" type="curve"/>
      <point x="313" y="518"/>
      <point x="326" y="507"/>
      <point x="331" y="502" type="curve"/>
      <point x="402" y="580"/>
      <point x="473" y="704"/>
    </contour>
    <contour>
      <point x="776" y="522" type="line"/>
      <point x="467" y="522" type="line"/>
      <point x="467" y="492" type="line"/>
      <point x="776" y="492" type="line"/>
    </contour>
    <contour>
      <point x="926" y="686" type="line"/>
      <point x="897" y="686" type="line"/>
      <point x="897" y="677" type="line"/>
      <point x="887" y="175"/>
      <point x="874" y="6"/>
      <point x="845" y="-29" type="curve" smooth="yes"/>
      <point x="835" y="-42"/>
      <point x="825" y="-44"/>
      <point x="808" y="-44" type="curve" smooth="yes"/>
      <point x="786" y="-44"/>
      <point x="729" y="-43"/>
      <point x="667" y="-38" type="curve"/>
      <point x="672" y="-47"/>
      <point x="674" y="-59"/>
      <point x="675" y="-69" type="curve"/>
      <point x="727" y="-72"/>
      <point x="781" y="-73"/>
      <point x="811" y="-73" type="curve" smooth="yes"/>
      <point x="839" y="-73"/>
      <point x="857" y="-66"/>
      <point x="872" y="-45" type="curve" smooth="yes"/>
      <point x="904" y="0"/>
      <point x="916" y="155"/>
      <point x="926" y="663" type="curve"/>
    </contour>
    <contour>
      <point x="815" y="357" type="line"/>
      <point x="356" y="357" type="line"/>
      <point x="356" y="327" type="line"/>
      <point x="815" y="327" type="line"/>
    </contour>
    <contour>
      <point x="609" y="510" type="line"/>
      <point x="579" y="510" type="line"/>
      <point x="579" y="117" type="line"/>
      <point x="609" y="117" type="line"/>
    </contour>
    <contour>
      <point x="530" y="612" type="curve"/>
      <point x="499" y="618" type="line"/>
      <point x="474" y="544"/>
      <point x="430" y="463"/>
      <point x="384" y="410" type="curve"/>
      <point x="392" y="406"/>
      <point x="403" y="398"/>
      <point x="409" y="392" type="curve"/>
      <point x="454" y="448"/>
      <point x="501" y="532"/>
    </contour>
    <contour>
      <point x="310" y="721" type="line"/>
      <point x="100" y="721" type="line"/>
      <point x="100" y="692" type="line"/>
      <point x="281" y="692" type="line"/>
      <point x="281" y="247" type="line"/>
      <point x="100" y="247" type="line"/>
      <point x="100" y="218" type="line"/>
      <point x="310" y="218" type="line"/>
    </contour>
    <contour>
      <point x="112" y="721" type="line"/>
      <point x="83" y="721" type="line"/>
      <point x="83" y="113" type="line"/>
      <point x="112" y="113" type="line"/>
    </contour>
  </outline>
</glyph>
<glyph name="uni5565" format="2">
  <advance width="1000"/>
  <unicode hex="5565"/>
  <note>
cid12473
</note>
  <outline>
    <contour>
      <point x="638" y="798" type="curve"/>
      <point x="709" y="681"/>
      <point x="831" y="559"/>
      <point x="941" y="485" type="curve"/>
      <point x="945" y="491"/>
      <point x="954" y="502"/>
      <point x="960" y="509" type="curve"/>
      <point x="852" y="577"/>
      <point x="725" y="701"/>
      <point x="651" y="827" type="curve"/>
      <point x="621" y="827" type="line"/>
      <point x="564" y="707"/>
      <point x="445" y="579"/>
      <point x="324" y="501" type="curve"/>
      <point x="330" y="494"/>
      <point x="338" y="485"/>
      <point x="342" y="479" type="curve"/>
      <point x="464" y="560"/>
      <point x="579" y="688"/>
    </contour>
    <contour>
      <point x="813" y="560" type="line"/>
      <point x="468" y="560" type="line"/>
      <point x="468" y="530" type="line"/>
      <point x="813" y="530" type="line"/>
    </contour>
    <contour>
      <point x="929" y="402" type="line"/>
      <point x="364" y="402" type="line"/>
      <point x="364" y="373" type="line"/>
      <point x="929" y="373" type="line"/>
    </contour>
    <contour>
      <point x="867" y="264" type="line"/>
      <point x="416" y="264" type="line"/>
      <point x="416" y="-71" type="line"/>
      <point x="445" y="-71" type="line"/>
      <point x="445" y="234" type="line"/>
      <point x="837" y="234" type="line"/>
      <point x="837" y="-68" type="line"/>
      <point x="867" y="-68" type="line"/>
    </contour>
    <contour>
      <point x="859" y="4" type="line"/>
      <point x="430" y="4" type="line"/>
      <point x="430" y="-25" type="line"/>
      <point x="859" y="-25" type="line"/>
    </contour>
    <contour>
      <point x="655" y="544" type="line"/>
      <point x="625" y="544" type="line"/>
      <point x="625" y="253" type="line"/>
      <point x="655" y="253" type="line"/>
    </contour>
    <contour>
      <point x="315" y="714" type="line"/>
      <point x="99" y="714" type="line"/>
      <point x="99" y="684" type="line"/>
      <point x="286" y="684" type="line"/>
      <point x="286" y="239" type="line"/>
      <point x="99" y="239" type="line"/>
      <point x="99" y="210" type="line"/>
      <point x="315" y="210" type="line"/>
    </contour>
    <contour>
      <point x="113" y="714" type="line"/>
      <point x="84" y="714" type="line"/>
      <point x="84" y="123" type="line"/>
      <point x="113" y="123" type="line"/>
    </contour>
  </outline>
</glyph>
<glyph name="uni55E6" format="2">
  <advance width="1000"/>
  <unicode hex="55E6"/>
  <note>
cid12700
</note>
  <outline>
    <contour>
      <point x="899" y="728" type="line"/>
      <point x="382" y="728" type="line"/>
      <point x="382" y="699" type="line"/>
      <point x="899" y="699" type="line"/>
    </contour>
    <contour>
      <point x="646" y="831" type="line"/>
      <point x="617" y="831" type="line"/>
      <point x="617" y="562" type="line"/>
      <point x="646" y="562" type="line"/>
    </contour>
    <contour>
      <point x="646" y="207" type="line"/>
      <point x="617" y="207" type="line"/>
      <point x="617" y="-70" type="line"/>
      <point x="646" y="-70" type="line"/>
    </contour>
    <contour>
      <point x="932" y="577" type="line"/>
      <point x="345" y="577" type="line"/>
      <point x="345" y="429" type="line"/>
      <point x="374" y="429" type="line"/>
      <point x="374" y="548" type="line"/>
      <point x="903" y="548" type="line"/>
      <point x="903" y="429" type="line"/>
      <point x="932" y="429" type="line"/>
    </contour>
    <contour>
      <point x="520" y="136" type="curve"/>
      <point x="490" y="144" type="line"/>
      <point x="458" y="79"/>
      <point x="405" y="17"/>
      <point x="348" y="-26" type="curve"/>
      <point x="356" y="-31"/>
      <point x="369" y="-40"/>
      <point x="374" y="-44" type="curve"/>
      <point x="427" y="0"/>
      <point x="484" y="67"/>
    </contour>
    <contour>
      <point x="768" y="148" type="curve"/>
      <point x="746" y="132" type="line"/>
      <point x="802" y="79"/>
      <point x="865" y="5"/>
      <point x="896" y="-42" type="curve"/>
      <point x="919" y="-23" type="line"/>
      <point x="889" y="22"/>
      <point x="824" y="95"/>
    </contour>
    <contour>
      <point x="643" y="513" type="curve"/>
      <point x="615" y="528" type="line"/>
      <point x="576" y="476"/>
      <point x="524" y="418"/>
      <point x="480" y="377" type="curve"/>
      <point x="505" y="364" type="line"/>
      <point x="549" y="404"/>
      <point x="602" y="462"/>
    </contour>
    <contour>
      <point x="786" y="454" type="curve"/>
      <point x="758" y="469" type="line"/>
      <point x="679" y="373"/>
      <point x="574" y="270"/>
      <point x="487" y="203" type="curve"/>
      <point x="509" y="188" type="line"/>
      <point x="596" y="258"/>
      <point x="703" y="360"/>
    </contour>
    <contour>
      <point x="427" y="422" type="curve"/>
      <point x="407" y="403" type="line"/>
      <point x="478" y="362"/>
      <point x="546" y="310"/>
      <point x="582" y="268" type="curve"/>
      <point x="605" y="285" type="line"/>
      <point x="566" y="330"/>
      <point x="497" y="383"/>
    </contour>
    <contour>
      <point x="769" y="322" type="curve"/>
      <point x="746" y="306" type="line"/>
      <point x="811" y="259"/>
      <point x="877" y="191"/>
      <point x="906" y="140" type="curve"/>
      <point x="929" y="158" type="line"/>
      <point x="900" y="208"/>
      <point x="832" y="276"/>
    </contour>
    <contour>
      <point x="360" y="207" type="curve"/>
      <point x="366" y="177" type="line"/>
      <point x="504" y="182"/>
      <point x="696" y="192"/>
      <point x="866" y="203" type="curve"/>
      <point x="868" y="229" type="line"/>
      <point x="695" y="220"/>
      <point x="500" y="212"/>
    </contour>
    <contour>
      <point x="303" y="721" type="line"/>
      <point x="99" y="721" type="line"/>
      <point x="99" y="692" type="line"/>
      <point x="274" y="692" type="line"/>
      <point x="274" y="247" type="line"/>
      <point x="99" y="247" type="line"/>
      <point x="99" y="218" type="line"/>
      <point x="303" y="218" type="line"/>
    </contour>
    <contour>
      <point x="113" y="721" type="line"/>
      <point x="84" y="721" type="line"/>
      <point x="84" y="126" type="line"/>
      <point x="113" y="126" type="line"/>
    </contour>
  </outline>
</glyph>
<glyph name="uni561F" format="2">
  <advance width="1000"/>
  <unicode hex="561F"/>
  <outline>
    <contour>
      <point x="560" y="470" type="curve"/>
      <point x="538" y="457" type="line"/>
      <point x="567" y="431"/>
      <point x="600" y="391"/>
      <point x="617" y="360" type="curve"/>
      <point x="640" y="376" type="line"/>
      <point x="623" y="406"/>
      <point x="590" y="445"/>
    </contour>
    <contour>
      <point x="914" y="763" type="line"/>
      <point x="712" y="763" type="line"/>
      <point x="712" y="-70" type="line"/>
      <point x="741" y="-70" type="line"/>
      <point x="741" y="734" type="line"/>
      <point x="914" y="734" type="line"/>
    </contour>
    <contour>
      <point x="912" y="763" type="line"/>
      <point x="905" y="763" type="line"/>
      <point x="905" y="756" type="line"/>
      <point x="884" y="680"/>
      <point x="851" y="578"/>
      <point x="812" y="473" type="curve"/>
      <point x="885" y="377"/>
      <point x="902" y="299"/>
      <point x="902" y="233" type="curve" smooth="yes"/>
      <point x="902" y="200"/>
      <point x="897" y="160"/>
      <point x="881" y="148" type="curve" smooth="yes"/>
      <point x="872" y="141"/>
      <point x="861" y="139"/>
      <point x="846" y="138" type="curve" smooth="yes"/>
      <point x="830" y="137"/>
      <point x="808" y="137"/>
      <point x="783" y="140" type="curve"/>
      <point x="789" y="130"/>
      <point x="792" y="119"/>
      <point x="793" y="110" type="curve"/>
      <point x="816" y="108"/>
      <point x="839" y="108"/>
      <point x="858" y="110" type="curve" smooth="yes"/>
      <point x="877" y="112"/>
      <point x="889" y="116"/>
      <point x="901" y="125" type="curve" smooth="yes"/>
      <point x="923" y="142"/>
      <point x="931" y="189"/>
      <point x="931" y="233" type="curve" smooth="yes"/>
      <point x="931" y="302"/>
      <point x="915" y="382"/>
      <point x="844" y="477" type="curve"/>
      <point x="877" y="567"/>
      <point x="912" y="669"/>
      <point x="937" y="752" type="curve"/>
      <point x="917" y="765" type="line"/>
    </contour>
    <contour>
      <point x="588" y="699" type="line"/>
      <point x="344" y="699" type="line"/>
      <point x="344" y="670" type="line"/>
      <point x="588" y="670" type="line"/>
    </contour>
    <contour>
      <point x="679" y="526" type="line"/>
      <point x="311" y="526" type="line"/>
      <point x="311" y="497" type="line"/>
      <point x="679" y="497" type="line"/>
    </contour>
    <contour>
      <point x="483" y="822" type="line"/>
      <point x="454" y="822" type="line"/>
      <point x="454" y="512" type="line"/>
      <point x="483" y="512" type="line"/>
    </contour>
    <contour>
      <point x="651" y="340" type="line"/>
      <point x="392" y="340" type="line"/>
      <point x="392" y="-70" type="line"/>
      <point x="421" y="-70" type="line"/>
      <point x="421" y="311" type="line"/>
      <point x="622" y="311" type="line"/>
      <point x="622" y="-62" type="line"/>
      <point x="651" y="-62" type="line"/>
    </contour>
    <contour>
      <point x="630" y="178" type="line"/>
      <point x="404" y="178" type="line"/>
      <point x="404" y="149" type="line"/>
      <point x="630" y="149" type="line"/>
    </contour>
    <contour>
      <point x="629" y="16" type="line"/>
      <point x="403" y="16" type="line"/>
      <point x="403" y="-13" type="line"/>
      <point x="629" y="-13" type="line"/>
    </contour>
    <contour>
      <point x="676" y="777" type="curve"/>
      <point x="646" y="785" type="line"/>
      <point x="590" y="577"/>
      <point x="455" y="375"/>
      <point x="296" y="261" type="curve"/>
      <point x="302" y="256"/>
      <point x="312" y="245"/>
      <point x="316" y="238" type="curve"/>
      <point x="478" y="356"/>
      <point x="617" y="564"/>
    </contour>
    <contour>
      <point x="281" y="715" type="line"/>
      <point x="97" y="715" type="line"/>
      <point x="97" y="686" type="line"/>
      <point x="252" y="686" type="line"/>
      <point x="252" y="256" type="line"/>
      <point x="97" y="256" type="line"/>
      <point x="97" y="227" type="line"/>
      <point x="281" y="227" type="line"/>
    </contour>
    <contour>
      <point x="111" y="715" type="line"/>
      <point x="82" y="715" type="line"/>
      <point x="82" y="137" type="line"/>
      <point x="111" y="137" type="line"/>
    </contour>
  </outline>
</glyph>
<glyph name="uni5658" format="2">
  <advance width="1000" height="1000"/>
  <unicode hex="5658"/>
  <note>
cid12893
</note>
  <outline>
    <contour>
      <point x="948" y="771" type="line"/>
      <point x="343" y="771" type="line"/>
      <point x="343" y="742" type="line"/>
      <point x="948" y="742" type="line"/>
    </contour>
    <contour>
      <point x="918" y="539" type="line"/>
      <point x="733" y="539" type="line"/>
      <point x="733" y="510" type="line"/>
      <point x="918" y="510" type="line"/>
    </contour>
    <contour>
      <point x="359" y="771" type="line"/>
      <point x="329" y="771" type="line"/>
      <point x="329" y="488" type="line" smooth="yes"/>
      <point x="329" y="327"/>
      <point x="320" y="109"/>
      <point x="219" y="-51" type="curve"/>
      <point x="225" y="-55"/>
      <point x="238" y="-64"/>
      <point x="243" y="-69" type="curve"/>
      <point x="345" y="95"/>
      <point x="359" y="325"/>
      <point x="359" y="488" type="curve" smooth="yes"/>
    </contour>
    <contour>
      <point x="770" y="706" type="curve"/>
      <point x="740" y="709" type="line"/>
      <point x="727" y="570"/>
      <point x="706" y="434"/>
      <point x="661" y="340" type="curve"/>
      <point x="670" y="338"/>
      <point x="684" y="331"/>
      <point x="690" y="327" type="curve"/>
      <point x="729" y="417"/>
      <point x="757" y="553"/>
    </contour>
    <contour>
      <point x="912" y="539" type="line"/>
      <point x="906" y="539" type="line"/>
      <point x="906" y="530" type="line"/>
      <point x="899" y="467"/>
      <point x="886" y="383"/>
      <point x="872" y="333" type="curve"/>
      <point x="898" y="326" type="line"/>
      <point x="913" y="377"/>
      <point x="927" y="464"/>
      <point x="936" y="533" type="curve"/>
      <point x="918" y="541" type="line"/>
    </contour>
    <contour>
      <point x="815" y="527" type="line"/>
      <point x="785" y="527" type="line"/>
      <point x="785" y="341" type="line" smooth="yes"/>
      <point x="785" y="294"/>
      <point x="779" y="73"/>
      <point x="628" y="-49" type="curve"/>
      <point x="634" y="-55"/>
      <point x="643" y="-65"/>
      <point x="648" y="-70" type="curve"/>
      <point x="763" y="29"/>
      <point x="794" y="184"/>
      <point x="800" y="240" type="curve"/>
      <point x="806" y="185"/>
      <point x="836" y="25"/>
      <point x="942" y="-70" type="curve"/>
      <point x="946" y="-64"/>
      <point x="957" y="-53"/>
      <point x="963" y="-46" type="curve"/>
      <point x="823" y="67"/>
      <point x="815" y="295"/>
      <point x="815" y="341" type="curve" smooth="yes"/>
    </contour>
    <contour>
      <point x="445" y="705" type="curve"/>
      <point x="420" y="700" type="line"/>
      <point x="440" y="652"/>
      <point x="458" y="592"/>
      <point x="463" y="552" type="curve"/>
      <point x="490" y="558" type="line"/>
      <point x="485" y="598"/>
      <point x="467" y="659"/>
    </contour>
    <contour>
      <point x="644" y="699" type="curve"/>
      <point x="615" y="712" type="line"/>
      <point x="605" y="668"/>
      <point x="584" y="600"/>
      <point x="568" y="560" type="curve"/>
      <point x="591" y="549" type="line"/>
      <point x="609" y="588"/>
      <point x="628" y="649"/>
    </contour>
    <contour>
      <point x="677" y="538" type="line"/>
      <point x="385" y="538" type="line"/>
      <point x="385" y="509" type="line"/>
      <point x="677" y="509" type="line"/>
    </contour>
    <contour>
      <point x="442" y="459" type="line"/>
      <point x="413" y="459" type="line"/>
      <point x="413" y="150" type="line"/>
      <point x="442" y="150" type="line"/>
    </contour>
    <contour>
      <point x="636" y="231" type="line"/>
      <point x="427" y="231" type="line"/>
      <point x="427" y="202" type="line"/>
      <point x="636" y="202" type="line"/>
    </contour>
    <contour>
      <point x="650" y="458" type="line"/>
      <point x="621" y="458" type="line"/>
      <point x="621" y="168" type="line"/>
      <point x="650" y="168" type="line"/>
    </contour>
    <contour>
      <point x="545" y="524" type="line"/>
      <point x="516" y="524" type="line"/>
      <point x="516" y="282" type="line" smooth="yes"/>
      <point x="516" y="156"/>
      <point x="502" y="38"/>
      <point x="384" y="-51" type="curve"/>
      <point x="392" y="-56"/>
      <point x="402" y="-65"/>
      <point x="406" y="-71" type="curve"/>
      <point x="528" y="23"/>
      <point x="545" y="145"/>
      <point x="545" y="282" type="curve" smooth="yes"/>
    </contour>
    <contour>
      <point x="264" y="728" type="line"/>
      <point x="95" y="728" type="line"/>
      <point x="95" y="699" type="line"/>
      <point x="234" y="699" type="line"/>
      <point x="234" y="266" type="line"/>
      <point x="95" y="266" type="line"/>
      <point x="95" y="236" type="line"/>
      <point x="264" y="236" type="line"/>
    </contour>
    <contour>
      <point x="110" y="728" type="line"/>
      <point x="81" y="728" type="line"/>
      <point x="81" y="141" type="line"/>
      <point x="110" y="141" type="line"/>
    </contour>
  </outline>
</glyph>
<glyph name="uni5689" format="2">
  <advance width="1000" height="1000"/>
  <unicode hex="5689"/>
  <note>
cid12985
</note>
  <outline>
    <contour>
      <point x="951" y="539" type="line"/>
      <point x="668" y="539" type="line"/>
      <point x="668" y="510" type="line"/>
      <point x="951" y="510" type="line"/>
    </contour>
    <contour>
      <point x="874" y="817" type="line"/>
      <point x="845" y="817" type="line"/>
      <point x="845" y="-19" type="line" smooth="yes"/>
      <point x="845" y="-34"/>
      <point x="840" y="-38"/>
      <point x="826" y="-39" type="curve" smooth="yes"/>
      <point x="813" y="-40"/>
      <point x="766" y="-40"/>
      <point x="712" y="-39" type="curve"/>
      <point x="718" y="-48"/>
      <point x="723" y="-62"/>
      <point x="725" y="-71" type="curve"/>
      <point x="786" y="-71"/>
      <point x="825" y="-71"/>
      <point x="846" y="-65" type="curve" smooth="yes"/>
      <point x="865" y="-59"/>
      <point x="874" y="-48"/>
      <point x="874" y="-18" type="curve" smooth="yes"/>
    </contour>
    <contour>
      <point x="726" y="406" type="curve"/>
      <point x="698" y="401" type="line"/>
      <point x="728" y="324"/>
      <point x="755" y="220"/>
      <point x="763" y="160" type="curve"/>
      <point x="791" y="168" type="line"/>
      <point x="784" y="226"/>
      <point x="756" y="328"/>
    </contour>
    <contour>
      <point x="265" y="720" type="line"/>
      <point x="99" y="720" type="line"/>
      <point x="99" y="691" type="line"/>
      <point x="235" y="691" type="line"/>
      <point x="235" y="246" type="line"/>
      <point x="99" y="246" type="line"/>
      <point x="99" y="217" type="line"/>
      <point x="265" y="217" type="line"/>
    </contour>
    <contour>
      <point x="113" y="720" type="line"/>
      <point x="84" y="720" type="line"/>
      <point x="84" y="133" type="line"/>
      <point x="113" y="133" type="line"/>
    </contour>
    <contour>
      <point x="277" y="-5" type="curve"/>
      <point x="286" y="-34" type="line"/>
      <point x="384" y="-18"/>
      <point x="514" y="5"/>
      <point x="641" y="28" type="curve"/>
      <point x="640" y="52" type="line"/>
      <point x="507" y="31"/>
      <point x="371" y="8"/>
    </contour>
    <contour>
      <point x="649" y="586" type="line"/>
      <point x="291" y="586" type="line"/>
      <point x="291" y="557" type="line"/>
      <point x="649" y="557" type="line"/>
    </contour>
    <contour>
      <point x="650" y="376" type="line"/>
      <point x="301" y="376" type="line"/>
      <point x="301" y="347" type="line"/>
      <point x="650" y="347" type="line"/>
    </contour>
    <contour>
      <point x="381" y="537" type="curve"/>
      <point x="357" y="531" type="line"/>
      <point x="376" y="487"/>
      <point x="391" y="430"/>
      <point x="394" y="392" type="curve"/>
      <point x="422" y="399" type="line"/>
      <point x="418" y="436"/>
      <point x="402" y="494"/>
    </contour>
    <contour>
      <point x="596" y="529" type="curve"/>
      <point x="563" y="538" type="line"/>
      <point x="552" y="489"/>
      <point x="537" y="435"/>
      <point x="524" y="398" type="curve"/>
      <point x="550" y="390" type="line"/>
      <point x="563" y="427"/>
      <point x="579" y="477"/>
    </contour>
    <contour>
      <point x="633" y="215" type="line"/>
      <point x="315" y="215" type="line"/>
      <point x="315" y="185" type="line"/>
      <point x="633" y="185" type="line"/>
    </contour>
    <contour>
      <point x="325" y="778" type="curve"/>
      <point x="301" y="772" type="line"/>
      <point x="323" y="725"/>
      <point x="340" y="665"/>
      <point x="345" y="624" type="curve"/>
      <point x="373" y="631" type="line"/>
      <point x="367" y="670"/>
      <point x="348" y="732"/>
    </contour>
    <contour>
      <point x="663" y="776" type="curve"/>
      <point x="633" y="786" type="line"/>
      <point x="622" y="741"/>
      <point x="600" y="671"/>
      <point x="582" y="630" type="curve"/>
      <point x="606" y="621" type="line"/>
      <point x="624" y="663"/>
      <point x="645" y="725"/>
    </contour>
    <contour>
      <point x="491" y="364" type="line"/>
      <point x="462" y="364" type="line"/>
      <point x="462" y="4" type="line"/>
      <point x="491" y="17" type="line"/>
    </contour>
    <contour>
      <point x="448" y="830" type="line"/>
      <point x="419" y="830" type="line"/>
      <point x="419" y="566" type="line"/>
      <point x="448" y="566" type="line"/>
    </contour>
    <contour>
      <point x="542" y="830" type="line"/>
      <point x="513" y="830" type="line"/>
      <point x="513" y="566" type="line"/>
      <point x="542" y="566" type="line"/>
    </contour>
  </outline>
</glyph>
<glyph name="uni568E" format="2">
  <advance width="1000"/>
  <unicode hex="568E"/>
  <note>
cid12992
</note>
  <outline>
    <contour>
      <point x="641" y="830" type="line"/>
      <point x="612" y="830" type="line"/>
      <point x="612" y="730" type="line"/>
      <point x="641" y="730" type="line"/>
    </contour>
    <contour>
      <point x="933" y="744" type="line"/>
      <point x="329" y="744" type="line"/>
      <point x="329" y="715" type="line"/>
      <point x="933" y="715" type="line"/>
    </contour>
    <contour>
      <point x="856" y="364" type="line"/>
      <point x="401" y="364" type="line"/>
      <point x="401" y="335" type="line"/>
      <point x="856" y="335" type="line"/>
    </contour>
    <contour>
      <point x="438" y="541" type="line"/>
      <point x="438" y="633" type="line"/>
      <point x="816" y="633" type="line"/>
      <point x="816" y="541" type="line"/>
    </contour>
    <contour>
      <point x="845" y="662" type="line"/>
      <point x="409" y="662" type="line"/>
      <point x="409" y="512" type="line"/>
      <point x="845" y="512" type="line"/>
    </contour>
    <contour>
      <point x="933" y="458" type="line"/>
      <point x="325" y="458" type="line"/>
      <point x="325" y="327" type="line"/>
      <point x="354" y="327" type="line"/>
      <point x="354" y="429" type="line"/>
      <point x="904" y="429" type="line"/>
      <point x="904" y="327" type="line"/>
      <point x="933" y="327" type="line"/>
    </contour>
    <contour>
      <point x="619" y="217" type="curve"/>
      <point x="596" y="231" type="line"/>
      <point x="535" y="182"/>
      <point x="414" y="132"/>
      <point x="318" y="111" type="curve"/>
      <point x="325" y="105"/>
      <point x="332" y="93"/>
      <point x="336" y="85" type="curve"/>
      <point x="434" y="113"/>
      <point x="555" y="166"/>
    </contour>
    <contour>
      <point x="674" y="137" type="curve"/>
      <point x="652" y="152" type="line"/>
      <point x="575" y="82"/>
      <point x="421" y="10"/>
      <point x="293" y="-17" type="curve"/>
      <point x="299" y="-24"/>
      <point x="306" y="-37"/>
      <point x="309" y="-45" type="curve"/>
      <point x="438" y="-11"/>
      <point x="592" y="64"/>
    </contour>
    <contour>
      <point x="670" y="344" type="curve"/>
      <point x="642" y="355" type="line"/>
      <point x="575" y="307"/>
      <point x="455" y="257"/>
      <point x="332" y="227" type="curve"/>
      <point x="339" y="221"/>
      <point x="349" y="207"/>
      <point x="353" y="200" type="curve"/>
      <point x="473" y="236"/>
      <point x="596" y="291"/>
    </contour>
    <contour>
      <point x="544" y="293" type="curve"/>
      <point x="527" y="278" type="line"/>
      <point x="684" y="173"/>
      <point x="698" y="8"/>
      <point x="636" y="-32" type="curve" smooth="yes"/>
      <point x="620" y="-44"/>
      <point x="603" y="-45"/>
      <point x="581" y="-45" type="curve" smooth="yes"/>
      <point x="564" y="-45"/>
      <point x="536" y="-44"/>
      <point x="509" y="-41" type="curve"/>
      <point x="513" y="-48"/>
      <point x="517" y="-61"/>
      <point x="517" y="-67" type="curve"/>
      <point x="543" y="-68"/>
      <point x="567" y="-69"/>
      <point x="585" y="-69" type="curve" smooth="yes"/>
      <point x="613" y="-69"/>
      <point x="632" y="-65"/>
      <point x="655" y="-50" type="curve" smooth="yes"/>
      <point x="729" y="-1"/>
      <point x="714" y="182"/>
    </contour>
    <contour>
      <point x="668" y="360" type="curve"/>
      <point x="643" y="353" type="line"/>
      <point x="689" y="177"/>
      <point x="790" y="34"/>
      <point x="940" y="-26" type="curve"/>
      <point x="945" y="-17"/>
      <point x="954" y="-8"/>
      <point x="961" y="-2" type="curve"/>
      <point x="812" y="52"/>
      <point x="712" y="190"/>
    </contour>
    <contour>
      <point x="900" y="267" type="curve"/>
      <point x="875" y="286" type="line"/>
      <point x="838" y="256"/>
      <point x="772" y="211"/>
      <point x="725" y="184" type="curve"/>
      <point x="746" y="167" type="line"/>
      <point x="794" y="193"/>
      <point x="856" y="230"/>
    </contour>
    <contour>
      <point x="285" y="725" type="line"/>
      <point x="96" y="725" type="line"/>
      <point x="96" y="696" type="line"/>
      <point x="256" y="696" type="line"/>
      <point x="256" y="232" type="line"/>
      <point x="96" y="232" type="line"/>
      <point x="96" y="203" type="line"/>
      <point x="285" y="203" type="line"/>
    </contour>
    <contour>
      <point x="113" y="725" type="line"/>
      <point x="84" y="725" type="line"/>
      <point x="84" y="121" type="line"/>
      <point x="113" y="121" type="line"/>
    </contour>
  </outline>
</glyph>
<glyph name="uni5690" format="2">
  <advance width="1000"/>
  <unicode hex="5690"/>
  <note>
cid12994
</note>
  <outline>
    <contour>
      <point x="451" y="456" type="line"/>
      <point x="422" y="456" type="line"/>
      <point x="422" y="342" type="line" smooth="yes"/>
      <point x="422" y="281"/>
      <point x="445" y="273"/>
      <point x="536" y="273" type="curve" smooth="yes"/>
      <point x="630" y="273"/>
      <point x="725" y="273"/>
      <point x="819" y="273" type="curve" smooth="yes"/>
      <point x="888" y="273"/>
      <point x="902" y="287"/>
      <point x="906" y="355" type="curve"/>
      <point x="898" y="356"/>
      <point x="886" y="360"/>
      <point x="878" y="366" type="curve"/>
      <point x="875" y="312"/>
      <point x="867" y="303"/>
      <point x="818" y="303" type="curve" smooth="yes"/>
      <point x="716" y="303"/>
      <point x="613" y="303"/>
      <point x="511" y="303" type="curve" smooth="yes"/>
      <point x="459" y="303"/>
      <point x="451" y="311"/>
      <point x="451" y="342" type="curve" smooth="yes"/>
    </contour>
    <contour>
      <point x="846" y="420" type="curve"/>
      <point x="817" y="442" type="line"/>
      <point x="723" y="416"/>
      <point x="559" y="393"/>
      <point x="431" y="381" type="curve"/>
      <point x="435" y="374"/>
      <point x="439" y="362"/>
      <point x="440" y="354" type="curve"/>
      <point x="573" y="370"/>
      <point x="740" y="391"/>
    </contour>
    <contour>
      <point x="657" y="830" type="line"/>
      <point x="627" y="830" type="line"/>
      <point x="627" y="667" type="line"/>
      <point x="657" y="667" type="line"/>
    </contour>
    <contour>
      <point x="950" y="690" type="line"/>
      <point x="344" y="690" type="line"/>
      <point x="344" y="534" type="line"/>
      <point x="374" y="534" type="line"/>
      <point x="374" y="661" type="line"/>
      <point x="920" y="661" type="line"/>
      <point x="920" y="534" type="line"/>
      <point x="950" y="534" type="line"/>
    </contour>
    <contour>
      <point x="445" y="809" type="curve"/>
      <point x="422" y="798" type="line"/>
      <point x="449" y="765"/>
      <point x="475" y="719"/>
      <point x="485" y="687" type="curve"/>
      <point x="511" y="700" type="line"/>
      <point x="500" y="730"/>
      <point x="474" y="775"/>
    </contour>
    <contour>
      <point x="866" y="804" type="curve"/>
      <point x="836" y="818" type="line"/>
      <point x="819" y="785"/>
      <point x="788" y="731"/>
      <point x="765" y="700" type="curve"/>
      <point x="787" y="688" type="line"/>
      <point x="812" y="718"/>
      <point x="841" y="764"/>
    </contour>
    <contour>
      <point x="301" y="658" type="line"/>
      <point x="100" y="658" type="line"/>
      <point x="100" y="628" type="line"/>
      <point x="272" y="628" type="line"/>
      <point x="272" y="183" type="line"/>
      <point x="100" y="183" type="line"/>
      <point x="100" y="154" type="line"/>
      <point x="301" y="154" type="line"/>
    </contour>
    <contour>
      <point x="114" y="658" type="line"/>
      <point x="84" y="658" type="line"/>
      <point x="84" y="67" type="line"/>
      <point x="114" y="67" type="line"/>
    </contour>
    <contour>
      <point x="853" y="234" type="line"/>
      <point x="424" y="234" type="line"/>
      <point x="424" y="-71" type="line"/>
      <point x="453" y="-71" type="line"/>
      <point x="453" y="205" type="line"/>
      <point x="823" y="205" type="line"/>
      <point x="823" y="-68" type="line"/>
      <point x="853" y="-68" type="line"/>
    </contour>
    <contour>
      <point x="830" y="-5" type="line"/>
      <point x="446" y="-5" type="line"/>
      <point x="446" y="-34" type="line"/>
      <point x="830" y="-34" type="line"/>
    </contour>
    <contour>
      <point x="830" y="120" type="line"/>
      <point x="446" y="120" type="line"/>
      <point x="446" y="90" type="line"/>
      <point x="830" y="90" type="line"/>
    </contour>
    <contour>
      <point x="493" y="498" type="line"/>
      <point x="493" y="584" type="line"/>
      <point x="788" y="584" type="line"/>
      <point x="788" y="498" type="line"/>
    </contour>
    <contour>
      <point x="818" y="614" type="line"/>
      <point x="464" y="614" type="line"/>
      <point x="464" y="469" type="line"/>
      <point x="818" y="469" type="line"/>
    </contour>
  </outline>
</glyph>
<glyph name="uni56C6" format="2">
  <advance width="1000" height="1000"/>
  <unicode hex="56C6"/>
  <note>
cid13096
</note>
  <outline>
    <contour>
      <point x="296" y="720" type="line"/>
      <point x="98" y="720" type="line"/>
      <point x="98" y="691" type="line"/>
      <point x="267" y="691" type="line"/>
      <point x="267" y="228" type="line"/>
      <point x="98" y="228" type="line"/>
      <point x="98" y="198" type="line"/>
      <point x="296" y="198" type="line"/>
    </contour>
    <contour>
      <point x="113" y="720" type="line"/>
      <point x="84" y="720" type="line"/>
      <point x="84" y="107" type="line"/>
      <point x="113" y="107" type="line"/>
    </contour>
    <contour>
      <point x="428" y="107" type="line"/>
      <point x="428" y="206" type="line"/>
      <point x="841" y="206" type="line"/>
      <point x="841" y="107" type="line"/>
    </contour>
    <contour>
      <point x="870" y="235" type="line"/>
      <point x="399" y="235" type="line"/>
      <point x="399" y="78" type="line"/>
      <point x="870" y="78" type="line"/>
    </contour>
    <contour>
      <point x="649" y="294" type="line"/>
      <point x="620" y="294" type="line"/>
      <point x="620" y="-22" type="line"/>
      <point x="649" y="-22" type="line"/>
    </contour>
    <contour>
      <point x="345" y="-25" type="curve"/>
      <point x="351" y="-56" type="line"/>
      <point x="502" y="-46"/>
      <point x="700" y="-30"/>
      <point x="865" y="-14" type="curve"/>
      <point x="866" y="12" type="line"/>
      <point x="696" y="-2"/>
      <point x="495" y="-16"/>
    </contour>
    <contour>
      <point x="800" y="73" type="curve"/>
      <point x="778" y="55" type="line"/>
      <point x="826" y="18"/>
      <point x="874" y="-31"/>
      <point x="903" y="-72" type="curve"/>
      <point x="927" y="-51" type="line"/>
      <point x="898" y="-13"/>
      <point x="850" y="35"/>
    </contour>
    <contour>
      <point x="646" y="661" type="line"/>
      <point x="617" y="661" type="line"/>
      <point x="617" y="338" type="line"/>
      <point x="646" y="338" type="line"/>
    </contour>
    <contour>
      <point x="446" y="521" type="line"/>
      <point x="446" y="570" type="line"/>
      <point x="824" y="570" type="line"/>
      <point x="824" y="521" type="line"/>
    </contour>
    <contour>
      <point x="446" y="599" type="line"/>
      <point x="446" y="647" type="line"/>
      <point x="824" y="647" type="line"/>
      <point x="824" y="599" type="line"/>
    </contour>
    <contour>
      <point x="853" y="676" type="line"/>
      <point x="417" y="676" type="line"/>
      <point x="417" y="492" type="line"/>
      <point x="853" y="492" type="line"/>
    </contour>
    <contour>
      <point x="525" y="831" type="line"/>
      <point x="496" y="831" type="line"/>
      <point x="496" y="690" type="line"/>
      <point x="525" y="690" type="line"/>
    </contour>
    <contour>
      <point x="764" y="831" type="line"/>
      <point x="735" y="831" type="line"/>
      <point x="735" y="690" type="line"/>
      <point x="764" y="690" type="line"/>
    </contour>
    <contour>
      <point x="915" y="462" type="line"/>
      <point x="886" y="462" type="line"/>
      <point x="886" y="288" type="line" smooth="yes"/>
      <point x="886" y="279"/>
      <point x="884" y="278"/>
      <point x="875" y="277" type="curve" smooth="yes"/>
      <point x="866" y="276"/>
      <point x="839" y="276"/>
      <point x="803" y="277" type="curve"/>
      <point x="808" y="269"/>
      <point x="813" y="258"/>
      <point x="815" y="251" type="curve"/>
      <point x="857" y="251"/>
      <point x="883" y="251"/>
      <point x="898" y="257" type="curve" smooth="yes"/>
      <point x="912" y="263"/>
      <point x="915" y="270"/>
      <point x="915" y="288" type="curve" smooth="yes"/>
    </contour>
    <contour>
      <point x="445" y="343" type="curve"/>
      <point x="451" y="314" type="line"/>
      <point x="545" y="323"/>
      <point x="677" y="336"/>
      <point x="804" y="350" type="curve"/>
      <point x="804" y="377" type="line"/>
      <point x="676" y="364"/>
      <point x="538" y="351"/>
    </contour>
    <contour>
      <point x="749" y="421" type="curve"/>
      <point x="727" y="406" type="line"/>
      <point x="772" y="373"/>
      <point x="814" y="332"/>
      <point x="837" y="299" type="curve"/>
      <point x="860" y="318" type="line"/>
      <point x="839" y="349"/>
      <point x="792" y="393"/>
    </contour>
    <contour>
      <point x="906" y="462" type="line"/>
      <point x="365" y="462" type="line"/>
      <point x="365" y="243" type="line"/>
      <point x="394" y="243" type="line"/>
      <point x="394" y="433" type="line"/>
      <point x="906" y="433" type="line"/>
    </contour>
    <contour>
      <point x="950" y="768" type="line"/>
      <point x="328" y="768" type="line"/>
      <point x="328" y="739" type="line"/>
      <point x="950" y="739" type="line"/>
    </contour>
  </outline>
</glyph>
<glyph name="uni56D4" format="2">
  <advance width="1000"/>
  <unicode hex="56D4"/>
  <note>
cid13122
</note>
  <outline>
    <contour>
      <point x="516" y="388" type="line"/>
      <point x="487" y="388" type="line"/>
      <point x="487" y="168" type="line"/>
      <point x="516" y="168" type="line"/>
    </contour>
    <contour>
      <point x="738" y="388" type="line"/>
      <point x="709" y="388" type="line"/>
      <point x="709" y="168" type="line"/>
      <point x="738" y="168" type="line"/>
    </contour>
    <contour>
      <point x="947" y="183" type="line"/>
      <point x="282" y="183" type="line"/>
      <point x="282" y="154" type="line"/>
      <point x="947" y="154" type="line"/>
    </contour>
    <contour>
      <point x="623" y="165" type="curve"/>
      <point x="597" y="180" type="line"/>
      <point x="521" y="125"/>
      <point x="375" y="73"/>
      <point x="261" y="50" type="curve"/>
      <point x="269" y="43"/>
      <point x="278" y="32"/>
      <point x="283" y="24" type="curve"/>
      <point x="395" y="49"/>
      <point x="546" y="106"/>
    </contour>
    <contour>
      <point x="638" y="177" type="curve"/>
      <point x="609" y="169" type="line"/>
      <point x="659" y="40"/>
      <point x="779" y="-38"/>
      <point x="944" y="-71" type="curve"/>
      <point x="949" y="-62"/>
      <point x="957" y="-50"/>
      <point x="964" y="-43" type="curve"/>
      <point x="802" y="-16"/>
      <point x="684" y="57"/>
    </contour>
    <contour>
      <point x="891" y="116" type="curve"/>
      <point x="866" y="134" type="line"/>
      <point x="831" y="107"/>
      <point x="765" y="65"/>
      <point x="720" y="40" type="curve"/>
      <point x="740" y="25" type="line"/>
      <point x="786" y="47"/>
      <point x="847" y="82"/>
    </contour>
    <contour>
      <point x="477" y="87" type="line"/>
      <point x="448" y="97" type="line"/>
      <point x="448" y="-40" type="line"/>
      <point x="477" y="-40" type="line"/>
    </contour>
    <contour>
      <point x="338" y="-36" type="curve"/>
      <point x="349" y="-65" type="line"/>
      <point x="440" y="-51"/>
      <point x="563" y="-30"/>
      <point x="684" y="-10" type="curve"/>
      <point x="682" y="18" type="line"/>
      <point x="553" y="-4"/>
      <point x="423" y="-24"/>
    </contour>
    <contour>
      <point x="624" y="819" type="line"/>
      <point x="595" y="819" type="line"/>
      <point x="595" y="532" type="line"/>
      <point x="624" y="532" type="line"/>
    </contour>
    <contour>
      <point x="937" y="770" type="line"/>
      <point x="299" y="770" type="line"/>
      <point x="299" y="741" type="line"/>
      <point x="937" y="741" type="line"/>
    </contour>
    <contour>
      <point x="882" y="260" type="line"/>
      <point x="353" y="260" type="line"/>
      <point x="353" y="230" type="line"/>
      <point x="882" y="230" type="line"/>
    </contour>
    <contour>
      <point x="894" y="336" type="line"/>
      <point x="332" y="336" type="line"/>
      <point x="332" y="307" type="line"/>
      <point x="894" y="307" type="line"/>
    </contour>
    <contour>
      <point x="396" y="620" type="line"/>
      <point x="396" y="670" type="line"/>
      <point x="841" y="670" type="line"/>
      <point x="841" y="620" type="line"/>
    </contour>
    <contour>
      <point x="870" y="700" type="line"/>
      <point x="366" y="700" type="line"/>
      <point x="366" y="590" type="line"/>
      <point x="870" y="590" type="line"/>
    </contour>
    <contour>
      <point x="411" y="401" type="line"/>
      <point x="411" y="452" type="line"/>
      <point x="556" y="452" type="line"/>
      <point x="556" y="401" type="line"/>
    </contour>
    <contour>
      <point x="585" y="481" type="line"/>
      <point x="382" y="481" type="line"/>
      <point x="382" y="372" type="line"/>
      <point x="585" y="372" type="line"/>
    </contour>
    <contour>
      <point x="668" y="401" type="line"/>
      <point x="668" y="452" type="line"/>
      <point x="818" y="452" type="line"/>
      <point x="818" y="401" type="line"/>
    </contour>
    <contour>
      <point x="848" y="481" type="line"/>
      <point x="639" y="481" type="line"/>
      <point x="639" y="372" type="line"/>
      <point x="848" y="372" type="line"/>
    </contour>
    <contour>
      <point x="935" y="548" type="line"/>
      <point x="296" y="548" type="line"/>
      <point x="296" y="437" type="line"/>
      <point x="325" y="437" type="line"/>
      <point x="325" y="519" type="line"/>
      <point x="906" y="519" type="line"/>
      <point x="906" y="437" type="line"/>
      <point x="935" y="437" type="line"/>
    </contour>
    <contour>
      <point x="254" y="696" type="line"/>
      <point x="97" y="696" type="line"/>
      <point x="97" y="666" type="line"/>
      <point x="225" y="666" type="line"/>
      <point x="225" y="223" type="line"/>
      <point x="97" y="223" type="line"/>
      <point x="97" y="193" type="line"/>
      <point x="254" y="193" type="line"/>
    </contour>
    <contour>
      <point x="110" y="696" type="line"/>
      <point x="81" y="696" type="line"/>
      <point x="81" y="110" type="line"/>
      <point x="110" y="110" type="line"/>
    </contour>
  </outline>
</glyph>
<glyph name="uni5B62" format="2">
  <advance width="1000"/>
  <unicode hex="5B62"/>
  <note>
cid15384
</note>
  <outline>
    <contour>
      <point x="39" y="332" type="curve"/>
      <point x="49" y="302" type="line"/>
      <point x="141" y="325"/>
      <point x="268" y="358"/>
      <point x="389" y="390" type="curve"/>
      <point x="385" y="419" type="line"/>
      <point x="257" y="386"/>
      <point x="125" y="351"/>
    </contour>
    <contour>
      <point x="376" y="763" type="line"/>
      <point x="62" y="763" type="line"/>
      <point x="62" y="734" type="line"/>
      <point x="376" y="734" type="line"/>
    </contour>
    <contour>
      <point x="238" y="575" type="line"/>
      <point x="209" y="575" type="line"/>
      <point x="209" y="-25" type="line" smooth="yes"/>
      <point x="209" y="-38"/>
      <point x="204" y="-42"/>
      <point x="190" y="-42" type="curve" smooth="yes"/>
      <point x="178" y="-42"/>
      <point x="133" y="-44"/>
      <point x="79" y="-42" type="curve"/>
      <point x="83" y="-51"/>
      <point x="88" y="-63"/>
      <point x="90" y="-69" type="curve"/>
      <point x="158" y="-70"/>
      <point x="193" y="-70"/>
      <point x="212" y="-65" type="curve" smooth="yes"/>
      <point x="230" y="-60"/>
      <point x="238" y="-49"/>
      <point x="238" y="-24" type="curve" smooth="yes"/>
    </contour>
    <contour>
      <point x="372" y="763" type="line"/>
      <point x="365" y="763" type="line"/>
      <point x="365" y="755" type="line"/>
      <point x="332" y="696"/>
      <point x="270" y="617"/>
      <point x="215" y="570" type="curve"/>
      <point x="222" y="566"/>
      <point x="230" y="558"/>
      <point x="235" y="552" type="curve"/>
      <point x="291" y="603"/>
      <point x="358" y="681"/>
      <point x="399" y="752" type="curve"/>
      <point x="378" y="765" type="line"/>
    </contour>
    <contour>
      <point x="902" y="682" type="line"/>
      <point x="503" y="682" type="line"/>
      <point x="503" y="652" type="line"/>
      <point x="902" y="652" type="line"/>
    </contour>
    <contour>
      <point x="919" y="682" type="curve"/>
      <point x="889" y="682" type="line"/>
      <point x="889" y="674" type="line"/>
      <point x="885" y="348"/>
      <point x="869" y="193"/>
      <point x="847" y="175" type="curve" smooth="yes"/>
      <point x="836" y="166"/>
      <point x="824" y="164"/>
      <point x="805" y="164" type="curve" smooth="yes"/>
      <point x="790" y="164"/>
      <point x="749" y="164"/>
      <point x="704" y="168" type="curve"/>
      <point x="710" y="160"/>
      <point x="713" y="147"/>
      <point x="713" y="139" type="curve"/>
      <point x="751" y="136"/>
      <point x="788" y="136"/>
      <point x="810" y="136" type="curve" smooth="yes"/>
      <point x="835" y="136"/>
      <point x="851" y="138"/>
      <point x="868" y="152" type="curve" smooth="yes"/>
      <point x="899" y="178"/>
      <point x="911" y="288"/>
    </contour>
    <contour>
      <point x="566" y="826" type="curve"/>
      <point x="536" y="832" type="line"/>
      <point x="503" y="683"/>
      <point x="440" y="540"/>
      <point x="361" y="443" type="curve"/>
      <point x="369" y="438"/>
      <point x="382" y="428"/>
      <point x="386" y="423" type="curve"/>
      <point x="465" y="524"/>
      <point x="529" y="671"/>
    </contour>
    <contour>
      <point x="502" y="533" type="line"/>
      <point x="472" y="533" type="line"/>
      <point x="472" y="13" type="line" smooth="yes"/>
      <point x="472" y="-52"/>
      <point x="498" y="-65"/>
      <point x="584" y="-65" type="curve" smooth="yes"/>
      <point x="854" y="-65" type="line" smooth="yes"/>
      <point x="933" y="-65"/>
      <point x="946" y="-29"/>
      <point x="952" y="95" type="curve"/>
      <point x="943" y="97"/>
      <point x="930" y="102"/>
      <point x="922" y="109" type="curve"/>
      <point x="916" y="-11"/>
      <point x="909" y="-35"/>
      <point x="856" y="-35" type="curve" smooth="yes"/>
      <point x="580" y="-35" type="line" smooth="yes"/>
      <point x="514" y="-35"/>
      <point x="502" y="-23"/>
      <point x="502" y="19" type="curve" smooth="yes"/>
    </contour>
    <contour>
      <point x="749" y="533" type="line"/>
      <point x="480" y="533" type="line"/>
      <point x="480" y="504" type="line"/>
      <point x="720" y="504" type="line"/>
      <point x="720" y="277" type="line"/>
      <point x="480" y="277" type="line"/>
      <point x="480" y="248" type="line"/>
      <point x="749" y="248" type="line"/>
    </contour>
  </outline>
</glyph>
<glyph name="uni5B9E" format="2">
  <advance width="1000"/>
  <unicode hex="5B9E"/>
  <note>
cid15507
</note>
  <outline>
    <contour>
      <point x="501" y="215" type="curve"/>
      <point x="484" y="195" type="line"/>
      <point x="631" y="116"/>
      <point x="776" y="19"/>
      <point x="863" y="-66" type="curve"/>
      <point x="885" y="-45" type="line"/>
      <point x="797" y="39"/>
      <point x="649" y="139"/>
    </contour>
    <contour>
      <point x="553" y="610" type="curve"/>
      <point x="523" y="610" type="line"/>
      <point x="512" y="236"/>
      <point x="482" y="41"/>
      <point x="86" y="-38" type="curve"/>
      <point x="92" y="-45"/>
      <point x="101" y="-57"/>
      <point x="104" y="-65" type="curve"/>
      <point x="505" y="20"/>
      <point x="541" y="224"/>
    </contour>
    <contour>
      <point x="931" y="237" type="line"/>
      <point x="75" y="237" type="line"/>
      <point x="75" y="208" type="line"/>
      <point x="931" y="208" type="line"/>
    </contour>
    <contour>
      <point x="269" y="586" type="curve"/>
      <point x="249" y="568" type="line"/>
      <point x="305" y="534"/>
      <point x="368" y="483"/>
      <point x="399" y="447" type="curve"/>
      <point x="419" y="469" type="line"/>
      <point x="388" y="505"/>
      <point x="325" y="554"/>
    </contour>
    <contour>
      <point x="171" y="427" type="curve"/>
      <point x="151" y="408" type="line"/>
      <point x="211" y="374"/>
      <point x="280" y="320"/>
      <point x="314" y="281" type="curve"/>
      <point x="333" y="305" type="line"/>
      <point x="300" y="342"/>
      <point x="231" y="394"/>
    </contour>
    <contour>
      <point x="513" y="830" type="line"/>
      <point x="484" y="830" type="line"/>
      <point x="484" y="682" type="line"/>
      <point x="513" y="682" type="line"/>
    </contour>
    <contour>
      <point x="897" y="696" type="line"/>
      <point x="104" y="696" type="line"/>
      <point x="104" y="519" type="line"/>
      <point x="133" y="519" type="line"/>
      <point x="133" y="667" type="line"/>
      <point x="868" y="667" type="line"/>
      <point x="868" y="519" type="line"/>
      <point x="897" y="519" type="line"/>
    </contour>
  </outline>
</glyph>
<glyph name="uni5BAA" format="2">
  <advance width="1000"/>
  <unicode hex="5BAA"/>
  <note>
cid15528
</note>
  <outline>
    <contour>
      <point x="927" y="297" type="line"/>
      <point x="71" y="297" type="line"/>
      <point x="71" y="268" type="line"/>
      <point x="927" y="268" type="line"/>
    </contour>
    <contour>
      <point x="294" y="591" type="curve"/>
      <point x="266" y="598" type="line"/>
      <point x="231" y="505"/>
      <point x="176" y="414"/>
      <point x="112" y="351" type="curve"/>
      <point x="120" y="347"/>
      <point x="133" y="337"/>
      <point x="137" y="333" type="curve"/>
      <point x="198" y="397"/>
      <point x="257" y="493"/>
    </contour>
    <contour>
      <point x="845" y="493" type="line"/>
      <point x="231" y="493" type="line"/>
      <point x="217" y="464" type="line"/>
      <point x="845" y="464" type="line"/>
    </contour>
    <contour>
      <point x="513" y="645" type="line"/>
      <point x="483" y="645" type="line"/>
      <point x="483" y="278" type="line"/>
      <point x="513" y="278" type="line"/>
    </contour>
    <contour>
      <point x="380" y="276" type="curve"/>
      <point x="349" y="276" type="line"/>
      <point x="327" y="115"/>
      <point x="259" y="4"/>
      <point x="49" y="-47" type="curve"/>
      <point x="55" y="-53"/>
      <point x="64" y="-64"/>
      <point x="67" y="-69" type="curve"/>
      <point x="281" y="-15"/>
      <point x="354" y="100"/>
    </contour>
    <contour>
      <point x="603" y="276" type="line"/>
      <point x="574" y="276" type="line"/>
      <point x="574" y="2" type="line" smooth="yes"/>
      <point x="574" y="-50"/>
      <point x="594" y="-59"/>
      <point x="667" y="-59" type="curve" smooth="yes"/>
      <point x="733" y="-59"/>
      <point x="800" y="-59"/>
      <point x="866" y="-59" type="curve" smooth="yes"/>
      <point x="933" y="-59"/>
      <point x="945" y="-30"/>
      <point x="950" y="91" type="curve"/>
      <point x="941" y="94"/>
      <point x="929" y="99"/>
      <point x="920" y="105" type="curve"/>
      <point x="917" y="-13"/>
      <point x="910" y="-29"/>
      <point x="864" y="-29" type="curve" smooth="yes"/>
      <point x="798" y="-29"/>
      <point x="731" y="-29"/>
      <point x="665" y="-29" type="curve" smooth="yes"/>
      <point x="613" y="-29"/>
      <point x="603" y="-23"/>
      <point x="603" y="2" type="curve" smooth="yes"/>
    </contour>
    <contour>
      <point x="513" y="831" type="line"/>
      <point x="483" y="831" type="line"/>
      <point x="483" y="717" type="line"/>
      <point x="513" y="717" type="line"/>
    </contour>
    <contour>
      <point x="930" y="735" type="line"/>
      <point x="75" y="735" type="line"/>
      <point x="75" y="550" type="line"/>
      <point x="104" y="550" type="line"/>
      <point x="104" y="706" type="line"/>
      <point x="901" y="706" type="line"/>
      <point x="901" y="550" type="line"/>
      <point x="930" y="550" type="line"/>
    </contour>
  </outline>
</glyph>
<glyph name="uni833F" format="2">
  <advance width="1000" height="1000"/>
  <unicode hex="833F"/>
  <note>
cid34034
</note>
  <outline>
    <contour>
      <point x="337" y="831" type="line"/>
      <point x="308" y="831" type="line"/>
      <point x="308" y="579" type="line"/>
      <point x="337" y="579" type="line"/>
    </contour>
    <contour>
      <point x="690" y="831" type="line"/>
      <point x="661" y="831" type="line"/>
      <point x="661" y="579" type="line"/>
      <point x="690" y="579" type="line"/>
    </contour>
    <contour>
      <point x="938" y="717" type="line"/>
      <point x="69" y="717" type="line"/>
      <point x="69" y="688" type="line"/>
      <point x="938" y="688" type="line"/>
    </contour>
    <contour>
      <point x="414" y="512" type="line"/>
      <point x="69" y="512" type="line"/>
      <point x="69" y="483" type="line"/>
      <point x="414" y="483" type="line"/>
    </contour>
    <contour>
      <point x="251" y="498" type="line"/>
      <point x="222" y="498" type="line"/>
      <point x="222" y="122" type="line"/>
      <point x="251" y="122" type="line"/>
    </contour>
    <contour>
      <point x="57" y="100" type="curve"/>
      <point x="65" y="70" type="line"/>
      <point x="159" y="91"/>
      <point x="290" y="120"/>
      <point x="418" y="149" type="curve"/>
      <point x="416" y="176" type="line"/>
      <point x="292" y="148"/>
      <point x="153" y="119"/>
    </contour>
    <contour>
      <point x="499" y="537" type="line"/>
      <point x="470" y="537" type="line"/>
      <point x="470" y="319" type="line" smooth="yes"/>
      <point x="470" y="195"/>
      <point x="436" y="53"/>
      <point x="229" y="-47" type="curve"/>
      <point x="235" y="-51"/>
      <point x="243" y="-63"/>
      <point x="246" y="-70" type="curve"/>
      <point x="461" y="33"/>
      <point x="499" y="187"/>
      <point x="499" y="318" type="curve" smooth="yes"/>
    </contour>
    <contour>
      <point x="785" y="537" type="line"/>
      <point x="484" y="537" type="line"/>
      <point x="484" y="508" type="line"/>
      <point x="785" y="508" type="line"/>
    </contour>
    <contour>
      <point x="564" y="351" type="curve"/>
      <point x="542" y="335" type="line"/>
      <point x="603" y="281"/>
      <point x="672" y="205"/>
      <point x="704" y="156" type="curve"/>
      <point x="727" y="174" type="line"/>
      <point x="695" y="224"/>
      <point x="626" y="298"/>
    </contour>
    <contour>
      <point x="800" y="2" type="curve" smooth="yes"/>
      <point x="800" y="537" type="line"/>
      <point x="770" y="537" type="line"/>
      <point x="770" y="2" type="line" smooth="yes"/>
      <point x="770" y="-46"/>
      <point x="781" y="-61"/>
      <point x="823" y="-61" type="curve" smooth="yes"/>
      <point x="833" y="-61"/>
      <point x="883" y="-61"/>
      <point x="893" y="-61" type="curve" smooth="yes"/>
      <point x="939" y="-61"/>
      <point x="947" y="-25"/>
      <point x="950" y="112" type="curve"/>
      <point x="940" y="115"/>
      <point x="929" y="120"/>
      <point x="920" y="127" type="curve"/>
      <point x="919" y="-6"/>
      <point x="914" y="-32"/>
      <point x="891" y="-32" type="curve" smooth="yes"/>
      <point x="878" y="-32"/>
      <point x="834" y="-32"/>
      <point x="824" y="-32" type="curve" smooth="yes"/>
      <point x="804" y="-32"/>
      <point x="800" y="-23"/>
    </contour>
  </outline>
</glyph>
